<svg xmlns="http://www.w3.org/2000/svg" viewBox="0 0 194.98 32.93"><defs><style>.cls-1{fill:#8b272d;}.cls-2{fill:#ff5252;}</style></defs><title>readme-logos</title><g id="Logos"><path class="cls-1" d="M4.52,2.56H26.76a4.43,4.43,0,0,1,1.88.3,1.5,1.5,0,0,1,.8.94,5.93,5.93,0,0,1,.2,1.68,5.68,5.68,0,0,1-.2,1.66,1.37,1.37,0,0,1-.68.86,4.66,4.66,0,0,1-2,.36H19.08V28.48A11.09,11.09,0,0,1,19,29.84a3.3,3.3,0,0,1-.36,1,1.68,1.68,0,0,1-1.06.82,6.82,6.82,0,0,1-2,.24,6.58,6.58,0,0,1-2-.24,1.69,1.69,0,0,1-1-.82,3.23,3.23,0,0,1-.36-1,11.7,11.7,0,0,1-.06-1.38V8.36H4.48a4.43,4.43,0,0,1-1.88-.3,1.5,1.5,0,0,1-.8-.94,5.93,5.93,0,0,1-.2-1.68,5.68,5.68,0,0,1,.2-1.66,1.37,1.37,0,0,1,.68-.86A4.66,4.66,0,0,1,4.52,2.56Z"/><path class="cls-1" d="M40.72,13.08c.16-1.49,1.21-2.24,3.16-2.24a8.3,8.3,0,0,1,2.32.24,1.67,1.67,0,0,1,1.06.84A3.4,3.4,0,0,1,47.62,13a11.7,11.7,0,0,1,.06,1.38v14a11.7,11.7,0,0,1-.06,1.38,3.58,3.58,0,0,1-.34,1.06c-.37.69-1.29,1-2.74,1a5.4,5.4,0,0,1-2.92-.54,2.18,2.18,0,0,1-.86-1.58c-1,1.41-2.63,2.12-4.94,2.12a8.7,8.7,0,0,1-6.42-3.16,10.42,10.42,0,0,1-3-7.34,10.28,10.28,0,0,1,3-7.32A8.92,8.92,0,0,1,36,10.88a6.23,6.23,0,0,1,2.48.48,5.41,5.41,0,0,1,1.56.9A5.79,5.79,0,0,1,40.72,13.08ZM33.44,21.4a3.34,3.34,0,0,0,1,2.38A3.38,3.38,0,0,0,37,24.84a3.17,3.17,0,0,0,2.46-1.08,3.48,3.48,0,0,0,1-2.38A3.68,3.68,0,0,0,39.5,19,3.12,3.12,0,0,0,37,17.84,3.23,3.23,0,0,0,34.42,19,3.66,3.66,0,0,0,33.44,21.4Z"/><path class="cls-1" d="M57.48,21.38A3.26,3.26,0,0,0,58.6,24,3.64,3.64,0,0,0,61,25a4.17,4.17,0,0,0,2.36-.74,3.55,3.55,0,0,1,1.78-.74c.8,0,1.77.71,2.92,2.12A3.53,3.53,0,0,1,69,27.68c0,1-.73,2-2.2,2.84a9.49,9.49,0,0,1-5.6,1.6A11.48,11.48,0,0,1,54,29.44,9.47,9.47,0,0,1,51.32,26a10.71,10.71,0,0,1-1-4.72,10.44,10.44,0,0,1,1-4.68A9.58,9.58,0,0,1,54,13.24a11.17,11.17,0,0,1,7.08-2.64A10.53,10.53,0,0,1,64,11a9.65,9.65,0,0,1,2.12.82l.64.4,1.12.76a2.29,2.29,0,0,1,1,1.82,4.31,4.31,0,0,1-.84,2.3c-1,1.47-1.88,2.2-2.76,2.2a4.57,4.57,0,0,1-2.16-.88,2.91,2.91,0,0,0-2.06-.68,3.85,3.85,0,0,0-2.5,1A3.28,3.28,0,0,0,57.48,21.38Z"/><path class="cls-1" d="M74.32,13.48A11,11,0,0,1,82,10.36a10.85,10.85,0,0,1,7.64,3.1A10.35,10.35,0,0,1,93,21.36a10.37,10.37,0,0,1-1.72,5.9,10.78,10.78,0,0,1-4.18,3.8A11.39,11.39,0,0,1,82,32.28,10.85,10.85,0,0,1,76.84,31a11.41,11.41,0,0,1-4.18-3.84A10.11,10.11,0,0,1,71,21.4,10.34,10.34,0,0,1,74.32,13.48Zm5,10.78a4.26,4.26,0,0,0,2.6,1,4.34,4.34,0,0,0,2.64-1,3.48,3.48,0,0,0,1.32-3,3.45,3.45,0,0,0-1.24-2.92,4.3,4.3,0,0,0-2.68-1,4.17,4.17,0,0,0-2.68,1A3.55,3.55,0,0,0,78,21.34,3.46,3.46,0,0,0,79.32,24.26Z"/><path class="cls-1" d="M92.68,2.56h22.24a4.43,4.43,0,0,1,1.88.3,1.53,1.53,0,0,1,.8.94,5.93,5.93,0,0,1,.2,1.68,5.68,5.68,0,0,1-.2,1.66,1.4,1.4,0,0,1-.68.86,4.66,4.66,0,0,1-2,.36h-7.64V28.48a11.09,11.09,0,0,1-.06,1.36,3.3,3.3,0,0,1-.36,1,1.68,1.68,0,0,1-1.06.82,6.87,6.87,0,0,1-2,.24,6.58,6.58,0,0,1-2-.24,1.69,1.69,0,0,1-1-.82,3.23,3.23,0,0,1-.36-1,11.7,11.7,0,0,1-.06-1.38V8.36H92.64a4.43,4.43,0,0,1-1.88-.3,1.5,1.5,0,0,1-.8-.94,5.59,5.59,0,0,1-.2-1.68A5.36,5.36,0,0,1,90,3.78a1.37,1.37,0,0,1,.68-.86A4.66,4.66,0,0,1,92.68,2.56Z"/><path class="cls-1" d="M126.58,6.94a1.7,1.7,0,0,1-1.06.82,6.92,6.92,0,0,1-2,.24,6.87,6.87,0,0,1-2-.24,1.67,1.67,0,0,1-1.06-.84,3.4,3.4,0,0,1-.36-1.06A11.7,11.7,0,0,1,120,4.48a11.7,11.7,0,0,1,.06-1.38,3.13,3.13,0,0,1,.34-1Q121,1,123.52,1c1.68,0,2.69.36,3,1.08a3.26,3.26,0,0,1,.38,1.06A11.7,11.7,0,0,1,127,4.52a11.7,11.7,0,0,1-.06,1.38A3.23,3.23,0,0,1,126.58,6.94ZM120,14.36a11.7,11.7,0,0,1,.06-1.38,3.58,3.58,0,0,1,.34-1.06c.37-.69,1.41-1,3.12-1a4.26,4.26,0,0,1,2.72.68,2.23,2.23,0,0,1,.72,1.72c0,.27,0,.65,0,1.16v14a11.7,11.7,0,0,1-.06,1.38,3.26,3.26,0,0,1-.38,1.06c-.35.69-1.38,1-3.08,1s-2.71-.36-3.08-1.08a3.66,3.66,0,0,1-.34-1,11.51,11.51,0,0,1-.06-1.4Z"/><path class="cls-1" d="M137.08,13.64q1.88-2.84,4.52-2.84a6.57,6.57,0,0,1,6.08,3.48A12.24,12.24,0,0,1,148.74,13a8.59,8.59,0,0,1,2-1.44,5.54,5.54,0,0,1,2.8-.78,6.85,6.85,0,0,1,5.36,2.46Q161,15.72,161,21.4v7a11.7,11.7,0,0,1-.06,1.38,3.26,3.26,0,0,1-.38,1.06c-.35.72-1.38,1.08-3.08,1.08s-2.71-.37-3.08-1.12a3.58,3.58,0,0,1-.34-1.06,11.7,11.7,0,0,1-.06-1.38v-7c0-2.32-.83-3.48-2.48-3.48a2,2,0,0,0-1.9.92,5.43,5.43,0,0,0-.5,2.6v7a11.51,11.51,0,0,1-.06,1.4,3.34,3.34,0,0,1-.38,1q-.57,1.08-3.12,1.08c-1.68,0-2.71-.37-3.08-1.12a3.58,3.58,0,0,1-.34-1.06,11.7,11.7,0,0,1-.06-1.38v-7c0-2.32-.83-3.48-2.48-3.48s-2.4,1.16-2.4,3.48v7.08a11.7,11.7,0,0,1-.06,1.38,3.26,3.26,0,0,1-.38,1.06c-.4.69-1.44,1-3.12,1s-2.71-.36-3.08-1.08a3.66,3.66,0,0,1-.34-1,11.51,11.51,0,0,1-.06-1.4V14.32a11.7,11.7,0,0,1,.06-1.38,2.68,2.68,0,0,1,.38-1c.4-.72,1.34-1.08,2.84-1.08s2.46.24,2.92.72A2.93,2.93,0,0,1,137.08,13.64Z"/><path class="cls-1" d="M184.56,18.86a4.88,4.88,0,0,1-1.22,3.64,3.81,3.81,0,0,1-2.7,1.18h-9.48a2.19,2.19,0,0,0,1.32,1.88,5.22,5.22,0,0,0,2.64.76,11,11,0,0,0,3.64-.48l.44-.16a4.08,4.08,0,0,1,1.6-.44c.85,0,1.58.6,2.2,1.8a4.5,4.5,0,0,1,.52,1.84q0,3.56-8.52,3.56a12.82,12.82,0,0,1-5.26-1,8.87,8.87,0,0,1-3.58-2.7,11.49,11.49,0,0,1-2.52-7.24,10.43,10.43,0,0,1,3.26-8.06,11.52,11.52,0,0,1,8.14-3q5.55,0,8.16,3.92A8.19,8.19,0,0,1,184.56,18.86ZM176.12,20c1,0,1.52-.43,1.52-1.28a1.82,1.82,0,0,0-.7-1.48,3.17,3.17,0,0,0-2-.56,4,4,0,0,0-2.58,1.06A3,3,0,0,0,171.08,20Z"/><path class="cls-1" d="M187.56,25.82a2.06,2.06,0,0,1,1.22-1.06,8.42,8.42,0,0,1,2.56-.28,3.5,3.5,0,0,1,2.52.76,3.24,3.24,0,0,1,.78,2.4v.64a12.13,12.13,0,0,1-.06,1.42,3.7,3.7,0,0,1-.38,1.1c-.43.77-1.45,1.16-3.06,1.16s-2.68-.26-3.2-.78a4.33,4.33,0,0,1-.78-3A5.26,5.26,0,0,1,187.56,25.82Zm5.36-4.66a8.52,8.52,0,0,1-2,.2,8.41,8.41,0,0,1-2-.2,1.59,1.59,0,0,1-1.06-.72,2.71,2.71,0,0,1-.36-.92,9.24,9.24,0,0,1-.06-1.24V5.6a9.7,9.7,0,0,1,.06-1.26,2.44,2.44,0,0,1,.38-.94,1.76,1.76,0,0,1,1.08-.74,7.39,7.39,0,0,1,2-.22,7.49,7.49,0,0,1,2,.22,1.7,1.7,0,0,1,1.06.76,2.88,2.88,0,0,1,.36,1,9.7,9.7,0,0,1,.06,1.26V18.32a9.24,9.24,0,0,1-.06,1.24,2.39,2.39,0,0,1-.38.9A1.78,1.78,0,0,1,192.92,21.16Z"/><path class="cls-2" d="M3.52,1.56H25.76a4.43,4.43,0,0,1,1.88.3,1.5,1.5,0,0,1,.8.94,5.93,5.93,0,0,1,.2,1.68,5.68,5.68,0,0,1-.2,1.66,1.37,1.37,0,0,1-.68.86,4.66,4.66,0,0,1-2,.36H18.08V27.48A11.09,11.09,0,0,1,18,28.84a3.3,3.3,0,0,1-.36,1,1.68,1.68,0,0,1-1.06.82,6.82,6.82,0,0,1-2,.24,6.58,6.58,0,0,1-2-.24,1.69,1.69,0,0,1-1-.82,3.23,3.23,0,0,1-.36-1,11.7,11.7,0,0,1-.06-1.38V7.36H3.48a4.43,4.43,0,0,1-1.88-.3,1.5,1.5,0,0,1-.8-.94A5.93,5.93,0,0,1,.6,4.44,5.68,5.68,0,0,1,.8,2.78a1.37,1.37,0,0,1,.68-.86A4.66,4.66,0,0,1,3.52,1.56Z"/><path class="cls-2" d="M39.72,12.08c.16-1.49,1.21-2.24,3.16-2.24a8.3,8.3,0,0,1,2.32.24,1.67,1.67,0,0,1,1.06.84A3.4,3.4,0,0,1,46.62,12a11.7,11.7,0,0,1,.06,1.38v14a11.7,11.7,0,0,1-.06,1.38,3.58,3.58,0,0,1-.34,1.06c-.37.69-1.29,1-2.74,1a5.4,5.4,0,0,1-2.92-.54,2.18,2.18,0,0,1-.86-1.58c-1,1.41-2.63,2.12-4.94,2.12a8.7,8.7,0,0,1-6.42-3.16,10.42,10.42,0,0,1-3-7.34,10.28,10.28,0,0,1,3-7.32A8.92,8.92,0,0,1,35,9.88a6.23,6.23,0,0,1,2.48.48,5.41,5.41,0,0,1,1.56.9A5.79,5.79,0,0,1,39.72,12.08ZM32.44,20.4a3.34,3.34,0,0,0,1,2.38A3.38,3.38,0,0,0,36,23.84a3.17,3.17,0,0,0,2.46-1.08,3.48,3.48,0,0,0,1-2.38A3.68,3.68,0,0,0,38.5,18,3.12,3.12,0,0,0,36,16.84,3.23,3.23,0,0,0,33.42,18,3.66,3.66,0,0,0,32.44,20.4Z"/><path class="cls-2" d="M56.48,20.38A3.26,3.26,0,0,0,57.6,23,3.64,3.64,0,0,0,60,24a4.17,4.17,0,0,0,2.36-.74,3.55,3.55,0,0,1,1.78-.74c.8,0,1.77.71,2.92,2.12A3.53,3.53,0,0,1,68,26.68c0,1-.73,2-2.2,2.84a9.49,9.49,0,0,1-5.6,1.6A11.48,11.48,0,0,1,53,28.44,9.47,9.47,0,0,1,50.32,25a10.71,10.71,0,0,1-1-4.72,10.44,10.44,0,0,1,1-4.68A9.58,9.58,0,0,1,53,12.24,11.17,11.17,0,0,1,60.08,9.6,10.53,10.53,0,0,1,63,10a9.65,9.65,0,0,1,2.12.82l.64.4,1.12.76a2.29,2.29,0,0,1,1,1.82,4.31,4.31,0,0,1-.84,2.3c-1,1.47-1.88,2.2-2.76,2.2a4.57,4.57,0,0,1-2.16-.88,2.91,2.91,0,0,0-2.06-.68,3.85,3.85,0,0,0-2.5,1A3.28,3.28,0,0,0,56.48,20.38Z"/><path class="cls-2" d="M73.32,12.48A11,11,0,0,1,81,9.36a10.85,10.85,0,0,1,7.64,3.1A10.35,10.35,0,0,1,92,20.36a10.37,10.37,0,0,1-1.72,5.9,10.78,10.78,0,0,1-4.18,3.8A11.39,11.39,0,0,1,81,31.28,10.85,10.85,0,0,1,75.84,30a11.41,11.41,0,0,1-4.18-3.84A10.11,10.11,0,0,1,70,20.4,10.34,10.34,0,0,1,73.32,12.48Zm5,10.78a4.26,4.26,0,0,0,2.6,1,4.34,4.34,0,0,0,2.64-1,3.48,3.48,0,0,0,1.32-3,3.45,3.45,0,0,0-1.24-2.92,4.3,4.3,0,0,0-2.68-1,4.17,4.17,0,0,0-2.68,1A3.55,3.55,0,0,0,77,20.34,3.46,3.46,0,0,0,78.32,23.26Z"/><path class="cls-2" d="M91.68,1.56h22.24a4.43,4.43,0,0,1,1.88.3,1.53,1.53,0,0,1,.8.94,5.93,5.93,0,0,1,.2,1.68,5.68,5.68,0,0,1-.2,1.66,1.4,1.4,0,0,1-.68.86,4.66,4.66,0,0,1-2,.36h-7.64V27.48a11.09,11.09,0,0,1-.06,1.36,3.3,3.3,0,0,1-.36,1,1.68,1.68,0,0,1-1.06.82,6.87,6.87,0,0,1-2,.24,6.58,6.58,0,0,1-2-.24,1.69,1.69,0,0,1-1-.82,3.23,3.23,0,0,1-.36-1,11.7,11.7,0,0,1-.06-1.38V7.36H91.64a4.43,4.43,0,0,1-1.88-.3,1.5,1.5,0,0,1-.8-.94,5.59,5.59,0,0,1-.2-1.68A5.36,5.36,0,0,1,89,2.78a1.37,1.37,0,0,1,.68-.86A4.66,4.66,0,0,1,91.68,1.56Z"/><path class="cls-2" d="M125.58,5.94a1.7,1.7,0,0,1-1.06.82,6.92,6.92,0,0,1-2,.24,6.87,6.87,0,0,1-2-.24,1.67,1.67,0,0,1-1.06-.84,3.4,3.4,0,0,1-.36-1.06A11.7,11.7,0,0,1,119,3.48a11.7,11.7,0,0,1,.06-1.38,3.13,3.13,0,0,1,.34-1Q120,0,122.52,0c1.68,0,2.69.36,3,1.08a3.26,3.26,0,0,1,.38,1.06A11.7,11.7,0,0,1,126,3.52a11.7,11.7,0,0,1-.06,1.38A3.23,3.23,0,0,1,125.58,5.94ZM119,13.36a11.7,11.7,0,0,1,.06-1.38,3.58,3.58,0,0,1,.34-1.06c.37-.69,1.41-1,3.12-1a4.26,4.26,0,0,1,2.72.68,2.23,2.23,0,0,1,.72,1.72c0,.27,0,.65,0,1.16v14a11.7,11.7,0,0,1-.06,1.38,3.26,3.26,0,0,1-.38,1.06c-.35.69-1.38,1-3.08,1s-2.71-.36-3.08-1.08a3.66,3.66,0,0,1-.34-1,11.51,11.51,0,0,1-.06-1.4Z"/><path class="cls-2" d="M136.08,12.64Q138,9.81,140.6,9.8a6.57,6.57,0,0,1,6.08,3.48A12.24,12.24,0,0,1,147.74,12a8.59,8.59,0,0,1,2-1.44,5.54,5.54,0,0,1,2.8-.78,6.85,6.85,0,0,1,5.36,2.46Q160,14.72,160,20.4v7a11.7,11.7,0,0,1-.06,1.38,3.26,3.26,0,0,1-.38,1.06c-.35.72-1.38,1.08-3.08,1.08s-2.71-.37-3.08-1.12a3.58,3.58,0,0,1-.34-1.06,11.7,11.7,0,0,1-.06-1.38v-7c0-2.32-.83-3.48-2.48-3.48a2,2,0,0,0-1.9.92,5.43,5.43,0,0,0-.5,2.6v7a11.51,11.51,0,0,1-.06,1.4,3.34,3.34,0,0,1-.38,1q-.57,1.08-3.12,1.08c-1.68,0-2.71-.37-3.08-1.12a3.58,3.58,0,0,1-.34-1.06,11.7,11.7,0,0,1-.06-1.38v-7c0-2.32-.83-3.48-2.48-3.48s-2.4,1.16-2.4,3.48v7.08a11.7,11.7,0,0,1-.06,1.38,3.26,3.26,0,0,1-.38,1.06c-.4.69-1.44,1-3.12,1s-2.71-.36-3.08-1.08a3.66,3.66,0,0,1-.34-1,11.51,11.51,0,0,1-.06-1.4V13.32a11.7,11.7,0,0,1,.06-1.38,2.68,2.68,0,0,1,.38-1c.4-.72,1.34-1.08,2.84-1.08s2.46.24,2.92.72A2.93,2.93,0,0,1,136.08,12.64Z"/><path class="cls-2" d="M183.56,17.86a4.88,4.88,0,0,1-1.22,3.64,3.81,3.81,0,0,1-2.7,1.18h-9.48a2.19,2.19,0,0,0,1.32,1.88,5.22,5.22,0,0,0,2.64.76,11,11,0,0,0,3.64-.48l.44-.16a4.08,4.08,0,0,1,1.6-.44c.85,0,1.58.6,2.2,1.8a4.5,4.5,0,0,1,.52,1.84q0,3.56-8.52,3.56a12.82,12.82,0,0,1-5.26-1,8.87,8.87,0,0,1-3.58-2.7,11.49,11.49,0,0,1-2.52-7.24,10.43,10.43,0,0,1,3.26-8.06,11.52,11.52,0,0,1,8.14-3q5.55,0,8.16,3.92A8.19,8.19,0,0,1,183.56,17.86ZM175.12,19c1,0,1.52-.43,1.52-1.28a1.82,1.82,0,0,0-.7-1.48,3.17,3.17,0,0,0-2-.56,4,4,0,0,0-2.58,1.06A3,3,0,0,0,170.08,19Z"/><path class="cls-2" d="M186.56,24.82a2.06,2.06,0,0,1,1.22-1.06,8.42,8.42,0,0,1,2.56-.28,3.5,3.5,0,0,1,2.52.76,3.24,3.24,0,0,1,.78,2.4v.64a12.13,12.13,0,0,1-.06,1.42,3.7,3.7,0,0,1-.38,1.1c-.43.77-1.45,1.16-3.06,1.16s-2.68-.26-3.2-.78a4.33,4.33,0,0,1-.78-3A5.26,5.26,0,0,1,186.56,24.82Zm5.36-4.66a8.52,8.52,0,0,1-2,.2,8.41,8.41,0,0,1-2-.2,1.59,1.59,0,0,1-1.06-.72,2.71,2.71,0,0,1-.36-.92,9.24,9.24,0,0,1-.06-1.24V4.6a9.7,9.7,0,0,1,.06-1.26,2.44,2.44,0,0,1,.38-.94,1.76,1.76,0,0,1,1.08-.74,7.39,7.39,0,0,1,2-.22,7.49,7.49,0,0,1,2,.22,1.7,1.7,0,0,1,1.06.76,2.88,2.88,0,0,1,.36,1,9.7,9.7,0,0,1,.06,1.26V17.32a9.24,9.24,0,0,1-.06,1.24,2.39,2.39,0,0,1-.38.9A1.78,1.78,0,0,1,191.92,20.16Z"/></g></svg>